<svg width="50" height="51" viewBox="0 0 50 51" fill="none" xmlns="http://www.w3.org/2000/svg">
<rect x="49.5" y="50" width="49" height="49" rx="24.5" transform="rotate(-180 49.5 50)" fill="white" fill-opacity="0.1"/>
<rect x="49.5" y="50" width="49" height="49" rx="24.5" transform="rotate(-180 49.5 50)" stroke="white"/>
<path d="M34.5098 25.5508C34.5098 25.7396 34.4349 25.9023 34.2852 26.0391L27.7617 32.5723C27.6706 32.6699 27.5827 32.735 27.498 32.7676C27.4134 32.8066 27.3255 32.8262 27.2344 32.8262C27.0521 32.8262 26.8991 32.7643 26.7754 32.6406C26.6517 32.5234 26.5898 32.377 26.5898 32.2012C26.5898 32.11 26.6061 32.0221 26.6387 31.9375C26.6647 31.8594 26.707 31.791 26.7656 31.7324L29.7051 28.7637L33.0352 25.668L33.1914 26.0684L30.3105 26.2051H17.0195C16.8307 26.2051 16.6777 26.1432 16.5605 26.0195C16.4368 25.8958 16.375 25.7396 16.375 25.5508C16.375 25.362 16.4368 25.2057 16.5605 25.082C16.6777 24.9583 16.8307 24.8965 17.0195 24.8965H30.3105L33.1914 25.0332L33.0352 25.4238L29.7051 22.3379L26.7656 19.3691C26.707 19.3171 26.6647 19.2487 26.6387 19.1641C26.6061 19.0794 26.5898 18.9915 26.5898 18.9004C26.5898 18.7246 26.6517 18.5781 26.7754 18.4609C26.8991 18.3372 27.0521 18.2754 27.2344 18.2754C27.4102 18.2754 27.5697 18.3438 27.7129 18.4805L34.2852 25.0625C34.4349 25.2057 34.5098 25.3685 34.5098 25.5508Z" fill="white"/>
</svg>
