<svg width="32" height="32" viewBox="0 0 32 32" fill="none" xmlns="http://www.w3.org/2000/svg">
<rect x="0.5" y="0.5" width="31" height="31" rx="5.5" fill="#C28300"/>
<rect x="0.5" y="0.5" width="31" height="31" rx="5.5" stroke="#E2E8F0"/>
<path d="M20 16.3334V14.6667C20 14.3131 19.8595 13.9739 19.6095 13.7239C19.3594 13.4739 19.0203 13.3334 18.6667 13.3334C18.313 13.3334 17.9739 13.4739 17.7239 13.7239C17.4738 13.9739 17.3333 14.3131 17.3333 14.6667V15.6" stroke="white" stroke-width="2" stroke-linecap="round" stroke-linejoin="round"/>
<path d="M17.3333 15.3333V14C17.3333 13.6463 17.1929 13.3072 16.9428 13.0572C16.6928 12.8071 16.3536 12.6666 16 12.6666C15.6464 12.6666 15.3072 12.8071 15.0572 13.0572C14.8071 13.3072 14.6667 13.6463 14.6667 14V15.3333" stroke="white" stroke-width="2" stroke-linecap="round" stroke-linejoin="round"/>
<path d="M14.6667 15V11.3333C14.6667 10.9797 14.5262 10.6406 14.2761 10.3905C14.0261 10.1405 13.687 10 13.3333 10C12.9797 10 12.6406 10.1405 12.3905 10.3905C12.1405 10.6406 12 10.9797 12 11.3333V17.3333" stroke="white" stroke-width="2" stroke-linecap="round" stroke-linejoin="round"/>
<path d="M12.6667 18L11.4933 16.8267C11.2401 16.5964 10.908 16.4724 10.5658 16.4802C10.2237 16.488 9.8976 16.6271 9.65515 16.8687C9.4127 17.1103 9.27244 17.4359 9.26342 17.778C9.25439 18.1202 9.37729 18.4527 9.60667 18.7067L12.0067 21.1067C13 22.0934 14.1333 22.6667 16 22.6667H17.3333C18.7478 22.6667 20.1044 22.1048 21.1046 21.1046C22.1048 20.1044 22.6667 18.7479 22.6667 17.3334V12.6667C22.6667 12.3131 22.5262 11.9739 22.2761 11.7239C22.0261 11.4738 21.687 11.3334 21.3333 11.3334C20.9797 11.3334 20.6406 11.4738 20.3905 11.7239C20.1405 11.9739 20 12.3131 20 12.6667V16" stroke="white" stroke-width="2" stroke-linecap="round" stroke-linejoin="round"/>
</svg>
