<svg width="15" height="16" viewBox="0 0 15 16" fill="none" xmlns="http://www.w3.org/2000/svg">
<g clip-path="url(#clip0_1_1281)">
<path d="M7.5 0.296875C3.3579 0.296875 0 3.65477 0 7.79688C0 11.3141 2.4216 14.2655 5.6883 15.0761V10.0889H4.1418V7.79688H5.6883V6.80928C5.6883 4.25658 6.8436 3.07338 9.3498 3.07338C9.825 3.07338 10.6449 3.16668 10.9803 3.25968V5.33717C10.8033 5.31857 10.4958 5.30928 10.1139 5.30928C8.8842 5.30928 8.409 5.77518 8.409 6.98628V7.79688H10.8588L10.4379 10.0889H8.409V15.242C12.1227 14.7935 15.0003 11.6315 15.0003 7.79688C15 3.65477 11.6421 0.296875 7.5 0.296875Z" fill="white"/>
</g>
<defs>
<clipPath id="clip0_1_1281">
<rect width="15" height="15" fill="white" transform="translate(0 0.296875)"/>
</clipPath>
</defs>
</svg>
