<svg width="15" height="16" viewBox="0 0 15 16" fill="none" xmlns="http://www.w3.org/2000/svg">
<g clip-path="url(#clip0_1_1279)">
<path d="M7.5 1.64746C9.50391 1.64746 9.74121 1.65625 10.5293 1.69141C11.2617 1.72363 11.6572 1.84668 11.9209 1.94922C12.2695 2.08398 12.5215 2.24805 12.7822 2.50879C13.0459 2.77246 13.207 3.02148 13.3418 3.37012C13.4443 3.63379 13.5674 4.03223 13.5996 4.76172C13.6348 5.55273 13.6436 5.79004 13.6436 7.79102C13.6436 9.79492 13.6348 10.0322 13.5996 10.8203C13.5674 11.5527 13.4443 11.9482 13.3418 12.2119C13.207 12.5605 13.043 12.8125 12.7822 13.0732C12.5186 13.3369 12.2695 13.498 11.9209 13.6328C11.6572 13.7354 11.2588 13.8584 10.5293 13.8906C9.73828 13.9258 9.50098 13.9346 7.5 13.9346C5.49609 13.9346 5.25879 13.9258 4.4707 13.8906C3.73828 13.8584 3.34277 13.7354 3.0791 13.6328C2.73047 13.498 2.47852 13.334 2.21777 13.0732C1.9541 12.8096 1.79297 12.5605 1.6582 12.2119C1.55566 11.9482 1.43262 11.5498 1.40039 10.8203C1.36523 10.0293 1.35645 9.79199 1.35645 7.79102C1.35645 5.78711 1.36523 5.5498 1.40039 4.76172C1.43262 4.0293 1.55566 3.63379 1.6582 3.37012C1.79297 3.02148 1.95703 2.76953 2.21777 2.50879C2.48145 2.24512 2.73047 2.08398 3.0791 1.94922C3.34277 1.84668 3.74121 1.72363 4.4707 1.69141C5.25879 1.65625 5.49609 1.64746 7.5 1.64746ZM7.5 0.296875C5.46387 0.296875 5.20898 0.305664 4.40918 0.34082C3.6123 0.375977 3.06445 0.504883 2.58984 0.689453C2.09473 0.882812 1.67578 1.1377 1.25977 1.55664C0.84082 1.97266 0.585938 2.3916 0.392578 2.88379C0.208008 3.36133 0.0791016 3.90625 0.0439453 4.70312C0.00878906 5.50586 0 5.76074 0 7.79688C0 9.83301 0.00878906 10.0879 0.0439453 10.8877C0.0791016 11.6846 0.208008 12.2324 0.392578 12.707C0.585938 13.2021 0.84082 13.6211 1.25977 14.0371C1.67578 14.4531 2.09473 14.7109 2.58691 14.9014C3.06445 15.0859 3.60938 15.2148 4.40625 15.25C5.20605 15.2852 5.46094 15.2939 7.49707 15.2939C9.5332 15.2939 9.78809 15.2852 10.5879 15.25C11.3848 15.2148 11.9326 15.0859 12.4072 14.9014C12.8994 14.7109 13.3184 14.4531 13.7344 14.0371C14.1504 13.6211 14.4082 13.2021 14.5986 12.71C14.7832 12.2324 14.9121 11.6875 14.9473 10.8906C14.9824 10.0908 14.9912 9.83594 14.9912 7.79981C14.9912 5.76367 14.9824 5.50879 14.9473 4.70898C14.9121 3.91211 14.7832 3.36426 14.5986 2.88965C14.4141 2.3916 14.1592 1.97266 13.7402 1.55664C13.3242 1.14062 12.9053 0.882812 12.4131 0.692383C11.9355 0.507812 11.3906 0.378906 10.5938 0.34375C9.79102 0.305664 9.53613 0.296875 7.5 0.296875Z" fill="white"/>
<path d="M7.5 3.94434C5.37305 3.94434 3.64746 5.66992 3.64746 7.79688C3.64746 9.92383 5.37305 11.6494 7.5 11.6494C9.62695 11.6494 11.3525 9.92383 11.3525 7.79688C11.3525 5.66992 9.62695 3.94434 7.5 3.94434ZM7.5 10.2959C6.12012 10.2959 5.00098 9.17676 5.00098 7.79688C5.00098 6.41699 6.12012 5.29785 7.5 5.29785C8.87988 5.29785 9.99902 6.41699 9.99902 7.79688C9.99902 9.17676 8.87988 10.2959 7.5 10.2959Z" fill="white"/>
<path d="M12.4043 3.79199C12.4043 4.29004 12 4.69141 11.5049 4.69141C11.0068 4.69141 10.6055 4.28711 10.6055 3.79199C10.6055 3.29395 11.0098 2.89258 11.5049 2.89258C12 2.89258 12.4043 3.29688 12.4043 3.79199Z" fill="white"/>
</g>
<defs>
<clipPath id="clip0_1_1279">
<rect width="15" height="15" fill="white" transform="translate(0 0.296875)"/>
</clipPath>
</defs>
</svg>
