<svg width="74" height="13" viewBox="0 0 74 13" fill="none" xmlns="http://www.w3.org/2000/svg">
<path d="M2.64453 12.377C2.54688 12.3027 2.48633 12.2051 2.46289 12.084C2.44336 11.9629 2.46484 11.8125 2.52734 11.6328L3.77539 7.88281L0.558594 5.5625C0.40625 5.45703 0.302734 5.34961 0.248047 5.24023C0.193359 5.12695 0.183594 5.01172 0.21875 4.89453C0.257812 4.78125 0.332031 4.69531 0.441406 4.63672C0.550781 4.57812 0.701172 4.55078 0.892578 4.55469L4.8418 4.57227L6.04297 0.804688C6.10547 0.625 6.17969 0.492188 6.26562 0.40625C6.35547 0.320312 6.45898 0.277344 6.57617 0.277344C6.69727 0.277344 6.80273 0.320312 6.89258 0.40625C6.98242 0.492188 7.05664 0.625 7.11523 0.804688L8.31641 4.57227L12.2715 4.55469C12.459 4.55078 12.6074 4.57812 12.7168 4.63672C12.8262 4.69531 12.9004 4.78125 12.9395 4.89453C12.9746 5.01172 12.9648 5.12695 12.9102 5.24023C12.8555 5.34961 12.752 5.45703 12.5996 5.5625L9.38281 7.88281L10.6367 11.6328C10.6953 11.8125 10.7129 11.9629 10.6895 12.084C10.6699 12.2051 10.6113 12.3027 10.5137 12.377C10.416 12.4512 10.3047 12.4766 10.1797 12.4531C10.0586 12.4336 9.92383 12.3711 9.77539 12.2656L6.57617 9.92188L3.38281 12.2656C3.23438 12.3711 3.09766 12.4336 2.97266 12.4531C2.85156 12.4766 2.74219 12.4512 2.64453 12.377ZM17.8086 12.377C17.7109 12.3027 17.6504 12.2051 17.627 12.084C17.6074 11.9629 17.6289 11.8125 17.6914 11.6328L18.9395 7.88281L15.7227 5.5625C15.5703 5.45703 15.4668 5.34961 15.4121 5.24023C15.3574 5.12695 15.3477 5.01172 15.3828 4.89453C15.4219 4.78125 15.4961 4.69531 15.6055 4.63672C15.7148 4.57812 15.8652 4.55078 16.0566 4.55469L20.0059 4.57227L21.207 0.804688C21.2695 0.625 21.3438 0.492188 21.4297 0.40625C21.5195 0.320312 21.623 0.277344 21.7402 0.277344C21.8613 0.277344 21.9668 0.320312 22.0566 0.40625C22.1465 0.492188 22.2207 0.625 22.2793 0.804688L23.4805 4.57227L27.4355 4.55469C27.623 4.55078 27.7715 4.57812 27.8809 4.63672C27.9902 4.69531 28.0645 4.78125 28.1035 4.89453C28.1387 5.01172 28.1289 5.12695 28.0742 5.24023C28.0195 5.34961 27.916 5.45703 27.7637 5.5625L24.5469 7.88281L25.8008 11.6328C25.8594 11.8125 25.877 11.9629 25.8535 12.084C25.834 12.2051 25.7754 12.3027 25.6777 12.377C25.5801 12.4512 25.4688 12.4766 25.3438 12.4531C25.2227 12.4336 25.0879 12.3711 24.9395 12.2656L21.7402 9.92188L18.5469 12.2656C18.3984 12.3711 18.2617 12.4336 18.1367 12.4531C18.0156 12.4766 17.9062 12.4512 17.8086 12.377ZM32.9727 12.377C32.875 12.3027 32.8145 12.2051 32.791 12.084C32.7715 11.9629 32.793 11.8125 32.8555 11.6328L34.1035 7.88281L30.8867 5.5625C30.7344 5.45703 30.6309 5.34961 30.5762 5.24023C30.5215 5.12695 30.5117 5.01172 30.5469 4.89453C30.5859 4.78125 30.6602 4.69531 30.7695 4.63672C30.8789 4.57812 31.0293 4.55078 31.2207 4.55469L35.1699 4.57227L36.3711 0.804688C36.4336 0.625 36.5078 0.492188 36.5938 0.40625C36.6836 0.320312 36.7871 0.277344 36.9043 0.277344C37.0254 0.277344 37.1309 0.320312 37.2207 0.40625C37.3105 0.492188 37.3848 0.625 37.4434 0.804688L38.6445 4.57227L42.5996 4.55469C42.7871 4.55078 42.9355 4.57812 43.0449 4.63672C43.1543 4.69531 43.2285 4.78125 43.2676 4.89453C43.3027 5.01172 43.293 5.12695 43.2383 5.24023C43.1836 5.34961 43.0801 5.45703 42.9277 5.5625L39.7109 7.88281L40.9648 11.6328C41.0234 11.8125 41.041 11.9629 41.0176 12.084C40.998 12.2051 40.9395 12.3027 40.8418 12.377C40.7441 12.4512 40.6328 12.4766 40.5078 12.4531C40.3867 12.4336 40.252 12.3711 40.1035 12.2656L36.9043 9.92188L33.7109 12.2656C33.5625 12.3711 33.4258 12.4336 33.3008 12.4531C33.1797 12.4766 33.0703 12.4512 32.9727 12.377ZM48.1367 12.377C48.0391 12.3027 47.9785 12.2051 47.9551 12.084C47.9355 11.9629 47.957 11.8125 48.0195 11.6328L49.2676 7.88281L46.0508 5.5625C45.8984 5.45703 45.7949 5.34961 45.7402 5.24023C45.6855 5.12695 45.6758 5.01172 45.7109 4.89453C45.75 4.78125 45.8242 4.69531 45.9336 4.63672C46.043 4.57812 46.1934 4.55078 46.3848 4.55469L50.334 4.57227L51.5352 0.804688C51.5977 0.625 51.6719 0.492188 51.7578 0.40625C51.8477 0.320312 51.9512 0.277344 52.0684 0.277344C52.1895 0.277344 52.2949 0.320312 52.3848 0.40625C52.4746 0.492188 52.5488 0.625 52.6074 0.804688L53.8086 4.57227L57.7637 4.55469C57.9512 4.55078 58.0996 4.57812 58.209 4.63672C58.3184 4.69531 58.3926 4.78125 58.4316 4.89453C58.4668 5.01172 58.457 5.12695 58.4023 5.24023C58.3477 5.34961 58.2441 5.45703 58.0918 5.5625L54.875 7.88281L56.1289 11.6328C56.1875 11.8125 56.2051 11.9629 56.1816 12.084C56.1621 12.2051 56.1035 12.3027 56.0059 12.377C55.9082 12.4512 55.7969 12.4766 55.6719 12.4531C55.5508 12.4336 55.416 12.3711 55.2676 12.2656L52.0684 9.92188L48.875 12.2656C48.7266 12.3711 48.5898 12.4336 48.4648 12.4531C48.3438 12.4766 48.2344 12.4512 48.1367 12.377ZM63.3008 12.377C63.2031 12.3027 63.1426 12.2051 63.1191 12.084C63.0996 11.9629 63.1211 11.8125 63.1836 11.6328L64.4316 7.88281L61.2148 5.5625C61.0625 5.45703 60.959 5.34961 60.9043 5.24023C60.8496 5.12695 60.8398 5.01172 60.875 4.89453C60.9141 4.78125 60.9883 4.69531 61.0977 4.63672C61.207 4.57812 61.3574 4.55078 61.5488 4.55469L65.498 4.57227L66.6992 0.804688C66.7617 0.625 66.8359 0.492188 66.9219 0.40625C67.0117 0.320312 67.1152 0.277344 67.2324 0.277344C67.3535 0.277344 67.459 0.320312 67.5488 0.40625C67.6387 0.492188 67.7129 0.625 67.7715 0.804688L68.9727 4.57227L72.9277 4.55469C73.1152 4.55078 73.2637 4.57812 73.373 4.63672C73.4824 4.69531 73.5566 4.78125 73.5957 4.89453C73.6309 5.01172 73.6211 5.12695 73.5664 5.24023C73.5117 5.34961 73.4082 5.45703 73.2559 5.5625L70.0391 7.88281L71.293 11.6328C71.3516 11.8125 71.3691 11.9629 71.3457 12.084C71.3262 12.2051 71.2676 12.3027 71.1699 12.377C71.0723 12.4512 70.9609 12.4766 70.8359 12.4531C70.7148 12.4336 70.5801 12.3711 70.4316 12.2656L67.2324 9.92188L64.0391 12.2656C63.8906 12.3711 63.7539 12.4336 63.6289 12.4531C63.5078 12.4766 63.3984 12.4512 63.3008 12.377Z" fill="white"/>
</svg>
