<svg width="15" height="16" viewBox="0 0 15 16" fill="none" xmlns="http://www.w3.org/2000/svg">
<g clip-path="url(#clip0_1_1280)">
<path d="M10.6703 0.296875H8.14238V10.5142C8.14238 11.7317 7.17012 12.7317 5.96016 12.7317C4.75021 12.7317 3.77793 11.7317 3.77793 10.5142C3.77793 9.31862 4.72861 8.34033 5.89536 8.29688V5.73167C3.3242 5.77513 1.25 7.88383 1.25 10.5142C1.25 13.1665 3.36741 15.2969 5.98178 15.2969C8.59611 15.2969 10.7135 13.1447 10.7135 10.5142V5.27512C11.6642 5.97079 12.8309 6.38383 14.0625 6.40558V3.84035C12.1612 3.77514 10.6703 2.20992 10.6703 0.296875Z" fill="white"/>
</g>
<defs>
<clipPath id="clip0_1_1280">
<rect width="15" height="15" fill="white" transform="translate(0 0.296875)"/>
</clipPath>
</defs>
</svg>
