<svg width="14" height="14" viewBox="0 0 14 14" fill="none" xmlns="http://www.w3.org/2000/svg">
<path d="M2.99609 11.7266C2.52344 11.7266 2.17773 11.6172 1.95898 11.3984C1.74414 11.1797 1.63672 10.8359 1.63672 10.3672V9.00781C1.63672 8.88281 1.59375 8.77734 1.50781 8.69141L0.546875 7.72461C0.214844 7.39258 0.0488281 7.07422 0.0488281 6.76953C0.0488281 6.46484 0.214844 6.14453 0.546875 5.80859L1.50781 4.84766C1.59375 4.75781 1.63672 4.65234 1.63672 4.53125V3.16602C1.63672 2.69336 1.74414 2.34961 1.95898 2.13477C2.17773 1.91602 2.52344 1.80664 2.99609 1.80664H4.34961C4.47852 1.80664 4.58594 1.76562 4.67188 1.68359L5.63281 0.722656C5.96484 0.386719 6.2832 0.21875 6.58789 0.21875C6.89648 0.21875 7.2168 0.386719 7.54883 0.722656L8.50977 1.68359C8.59961 1.76562 8.70703 1.80664 8.83203 1.80664H10.1914C10.6641 1.80664 11.0078 1.91797 11.2227 2.14062C11.4414 2.35937 11.5508 2.70117 11.5508 3.16602V4.53125C11.5508 4.65234 11.5938 4.75781 11.6797 4.84766L12.6406 5.80859C12.9727 6.14453 13.1387 6.46484 13.1387 6.76953C13.1387 7.07422 12.9727 7.39258 12.6406 7.72461L11.6797 8.69141C11.5938 8.77734 11.5508 8.88281 11.5508 9.00781V10.3672C11.5508 10.8398 11.4414 11.1836 11.2227 11.3984C11.0039 11.6172 10.6602 11.7266 10.1914 11.7266H8.83203C8.70703 11.7266 8.59961 11.7695 8.50977 11.8555L7.54883 12.8164C7.2168 13.1445 6.89648 13.3086 6.58789 13.3086C6.2832 13.3125 5.9668 13.1484 5.63867 12.8164L4.67188 11.8555C4.58594 11.7695 4.47852 11.7266 4.34961 11.7266H2.99609ZM5.95508 9.59961C6.0293 9.59961 6.09766 9.58203 6.16016 9.54688C6.22266 9.51172 6.27734 9.45898 6.32422 9.38867L9.22461 4.85352C9.25195 4.81055 9.27539 4.76367 9.29492 4.71289C9.31836 4.66211 9.33008 4.61133 9.33008 4.56055C9.33008 4.45898 9.29102 4.37695 9.21289 4.31445C9.13477 4.25195 9.04883 4.2207 8.95508 4.2207C8.82617 4.2207 8.71875 4.28906 8.63281 4.42578L5.9375 8.69727L4.55469 6.99805C4.5 6.92773 4.44531 6.87891 4.39062 6.85156C4.33984 6.82422 4.28125 6.81055 4.21484 6.81055C4.11719 6.81055 4.0332 6.84766 3.96289 6.92188C3.89258 6.99609 3.85742 7.08398 3.85742 7.18555C3.85742 7.23633 3.86719 7.28711 3.88672 7.33789C3.90625 7.38477 3.93359 7.43164 3.96875 7.47852L5.5625 9.38867C5.62109 9.46289 5.68164 9.51758 5.74414 9.55273C5.80664 9.58398 5.87695 9.59961 5.95508 9.59961Z" fill="white"/>
</svg>
